<?xml version="1.0" encoding="utf-8"?>
<!-- Generator: Adobe Illustrator 22.1.0, SVG Export Plug-In . SVG Version: 6.00 Build 0)  -->
<svg version="1.1" id="Capa_1" xmlns="http://www.w3.org/2000/svg" xmlns:xlink="http://www.w3.org/1999/xlink" x="0px" y="0px"
	 viewBox="0 0 160 160" style="enable-background:new 0 0 160 160;" xml:space="preserve">
<style type="text/css">
	.st0{clip-path:url(#SVGID_2_);fill:url(#SVGID_3_);}
	.st1{fill:#960001;}
	.st2{fill:#FFFFFF;}
</style>
<g>
	<g>
		<g>
			<defs>
				<path id="SVGID_1_" d="M0,80c0,44.2,35.8,80,80,80c44.2,0,80-35.8,80-80c0-44.2-35.8-80-80-80C35.8,0,0,35.8,0,80"/>
			</defs>
			<clipPath id="SVGID_2_">
				<use xlink:href="#SVGID_1_"  style="overflow:visible;"/>
			</clipPath>
			
				<linearGradient id="SVGID_3_" gradientUnits="userSpaceOnUse" x1="1.9873" y1="60.9199" x2="2.3206" y2="60.9199" gradientTransform="matrix(-1.530000e-05 -480.0576 -480.0576 1.530000e-05 29325.0801 1114.0205)">
				<stop  offset="0" style="stop-color:#6C0001"/>
				<stop  offset="0.227" style="stop-color:#AB0000"/>
				<stop  offset="0.258" style="stop-color:#B40000"/>
				<stop  offset="0.3656" style="stop-color:#CF0000"/>
				<stop  offset="0.4828" style="stop-color:#E50000"/>
				<stop  offset="0.613" style="stop-color:#F40000"/>
				<stop  offset="0.7663" style="stop-color:#FC0000"/>
				<stop  offset="1" style="stop-color:#FF0000"/>
			</linearGradient>
			<rect x="0" y="0" class="st0" width="160" height="160"/>
		</g>
		<g>
			<path class="st1" d="M144.6,65.4h-17h-4.4c-1,3.8-2.5,7-4.6,9.7c-2.1,2.7-5.7,4.1-10.8,4.1c-1.7,0-3.3-0.2-4.7-0.7
				c-1.4-0.4-4.3-1.4-8.8-2.9l-15.1-5.7c-1.9-0.8-4.3-1.5-7.1-2.1c-2.8-0.6-5.6-1-8.5-1c-6.9,0-13,1.4-18.1,4
				C39.1,73.5,34,78,29.9,84.5c-3.5,5.9-6.1,13.5-7.6,22.8h1.6c0,0,0,0,0,0h20.9c1.1-4.3,2.9-7.7,5.5-10.2c2.6-2.4,5.9-3.6,10-3.6
				c1.7,0,3.4,0.1,5.1,0.4c1.7,0.3,3.5,0.7,5.3,1.4l13,4.4c3.2,1.1,6.6,2.1,10.1,2.9c6.1,1.6,10.8,2.4,14.1,2.4
				c6.8,0,12.5-1.4,17.3-4.3c2.3-1.2,4.5-2.7,6.7-4.4c7-5.7,11.8-16,14.2-31H144.6z"/>
			<path class="st2" d="M140.3,57.8h-17H119c-1,3.8-2.5,7-4.6,9.7c-2.1,2.7-5.7,4.1-10.8,4.1c-1.7,0-3.3-0.2-4.7-0.7
				c-1.4-0.4-4.3-1.4-8.8-2.9l-15.1-5.7c-1.9-0.8-4.3-1.5-7.1-2.1c-2.8-0.6-5.6-1-8.5-1c-6.9,0-13,1.4-18.1,4
				c-6.3,2.6-11.5,7.1-15.5,13.6c-3.5,5.9-6.1,13.5-7.6,22.8h1.6c0,0,0,0,0,0h20.9c1.1-4.3,2.9-7.7,5.5-10.2c2.6-2.4,5.9-3.6,10-3.6
				c1.7,0,3.4,0.1,5.1,0.4c1.7,0.3,3.5,0.7,5.3,1.4l13,4.4c3.2,1.1,6.6,2.1,10.1,2.9c6.1,1.6,10.8,2.4,14.1,2.4
				c6.8,0,12.5-1.4,17.3-4.3c2.3-1.2,4.5-2.7,6.7-4.4c7-5.7,11.8-16,14.2-31H140.3z"/>
		</g>
	</g>
</g>
</svg>
