<?xml version="1.0" encoding="utf-8"?>
<!-- Generator: Adobe Illustrator 22.1.0, SVG Export Plug-In . SVG Version: 6.00 Build 0)  -->
<svg version="1.1" id="Capa_1" xmlns="http://www.w3.org/2000/svg" xmlns:xlink="http://www.w3.org/1999/xlink" x="0px" y="0px"
	 viewBox="0 0 512 512" style="enable-background:new 0 0 512 512;" xml:space="preserve">
<style type="text/css">
	.st0{fill:#FFFFFF;}
</style>
<g>
	<g>
		<path class="st0" d="M389.7,184.9h-51.5v-61.7c0-5.7-4.6-10.3-10.3-10.3H122.2c-5.7,0-10.3,4.6-10.3,10.3v236.7
			c0,22.7,18.4,41.2,41.2,41.2h205.8c22.7,0,41.2-18.4,41.2-41.2V195.2C400,189.5,395.4,184.9,389.7,184.9z M194.2,164.3h61.7
			c5.7,0,10.3,4.6,10.3,10.3c0,5.7-4.6,10.3-10.3,10.3h-61.7c-5.7,0-10.3-4.6-10.3-10.3C183.9,168.9,188.5,164.3,194.2,164.3z
			 M286.8,359.8H163.3c-5.7,0-10.3-4.6-10.3-10.3c0-5.7,4.6-10.3,10.3-10.3h123.5c5.7,0,10.3,4.6,10.3,10.3
			C297.1,355.2,292.5,359.8,286.8,359.8z M286.8,318.7H163.3c-5.7,0-10.3-4.6-10.3-10.3c0-5.7,4.6-10.3,10.3-10.3h123.5
			c5.7,0,10.3,4.6,10.3,10.3C297.1,314.1,292.5,318.7,286.8,318.7z M286.8,277.5H163.3c-5.7,0-10.3-4.6-10.3-10.3
			s4.6-10.3,10.3-10.3h123.5c5.7,0,10.3,4.6,10.3,10.3C297.1,272.9,292.5,277.5,286.8,277.5z M286.8,236.4H163.3
			c-5.7,0-10.3-4.6-10.3-10.3c0-5.7,4.6-10.3,10.3-10.3h123.5c5.7,0,10.3,4.6,10.3,10.3C297.1,231.7,292.5,236.4,286.8,236.4z
			 M379.4,359.8c0,11.4-9.2,20.6-20.6,20.6c-11.4,0-20.6-9.2-20.6-20.6V205.5h41.2L379.4,359.8L379.4,359.8z"/>
	</g>
</g>
</svg>
