<?xml version="1.0" encoding="utf-8"?>
<!-- Generator: Adobe Illustrator 22.1.0, SVG Export Plug-In . SVG Version: 6.00 Build 0)  -->
<svg version="1.1" id="podcast" xmlns="http://www.w3.org/2000/svg" xmlns:xlink="http://www.w3.org/1999/xlink" x="0px" y="0px"
	 viewBox="0 0 512 512" style="enable-background:new 0 0 512 512;" xml:space="preserve">
<style type="text/css">
	.st0{fill:#FFFFFF;}
</style>
<g>
	<g>
		<g>
			<path class="st0" d="M256,143c-55.1,0-99.9,44.8-99.9,99.9c0,26.4,10.3,50.5,27.1,68.3c2.5-9.1,6.9-17.8,12.7-25.5
				c-8.6-12.1-13.7-26.8-13.7-42.8c0-40.8,33.1-73.9,73.9-73.9s73.9,33.1,73.9,73.9c0,16-5.1,30.8-13.7,42.8
				c5.9,7.7,10.2,16.3,12.7,25.5c16.8-17.9,27.1-41.9,27.1-68.3C355.9,187.9,311.1,143,256,143z"/>
		</g>
	</g>
	<g>
		<g>
			<path class="st0" d="M256,90.9c-83.9,0-152.1,68.2-152.1,152.1c0,58.7,33.5,109.7,82.3,135.1l-4.8-33.6
				C150.3,321.5,130,284.6,130,243c0-69.5,56.5-126,126-126s126,56.5,126,126c0,41.6-20.2,78.5-51.4,101.5l-4.8,33.6
				c48.8-25.4,82.3-76.4,82.3-135.1C408.1,159.1,339.9,90.9,256,90.9z"/>
		</g>
	</g>
	<g>
		<g>
			<path class="st0" d="M256,195.2c-21.5,0-39.1,17.6-39.1,39.1s17.6,39.1,39.1,39.1s39.1-17.6,39.1-39.1S277.5,195.2,256,195.2z
				 M256,247.3c-7.2,0-13-5.8-13-13c0-7.2,5.8-13,13-13s13,5.8,13,13C269,241.5,263.2,247.3,256,247.3z"/>
		</g>
	</g>
	<g>
		<g>
			<path class="st0" d="M300,293.4c-11-12.8-27.2-20.1-44.1-20.1s-32.9,7.3-44,20.1c-11,12.8-16.1,29.6-13.6,46.4l6.8,47.6
				c2.8,19.1,19.4,33.5,38.8,33.5h24.3c19.3,0,36-14.4,38.7-33.5l6.8-47.6C316,323.2,311,306.2,300,293.4z"/>
		</g>
	</g>
</g>
</svg>
