<?xml version="1.0" encoding="utf-8"?>
<!-- Generator: Adobe Illustrator 22.1.0, SVG Export Plug-In . SVG Version: 6.00 Build 0)  -->
<svg version="1.1" id="radiofle" xmlns="http://www.w3.org/2000/svg" xmlns:xlink="http://www.w3.org/1999/xlink" x="0px" y="0px"
	 viewBox="0 0 512 512" style="enable-background:new 0 0 512 512;" xml:space="preserve">
<style type="text/css">
	.st0{fill:#FFFFFF;}
</style>
<g>
	<circle class="st0" cx="196.4" cy="297.7" r="39.7"/>
	<path class="st0" d="M395,198.4H171L329,138.2c5.1-1.9,7.7-7.7,5.7-12.8c-1.9-5.1-7.7-7.7-12.8-5.7l-208.5,79.4
		c-0.1,0-0.1,0.1-0.2,0.1c-9.1,1.8-16.2,9.5-16.2,19.1v158.8c0,11,8.9,19.9,19.9,19.9h278c11,0,19.9-8.9,19.9-19.9V218.3
		C414.8,207.4,405.9,198.4,395,198.4z M196.4,357.3c-32.8,0-59.6-26.7-59.6-59.6s26.7-59.6,59.6-59.6s59.6,26.7,59.6,59.6
		S229.3,357.3,196.4,357.3z M375.1,357.3h-79.4v-19.9h79.4V357.3z M375.1,317.6h-79.4v-19.9h79.4V317.6z M375.1,277.9h-79.4V258
		h79.4V277.9z"/>
</g>
</svg>
