<?xml version="1.0" encoding="utf-8"?>
<!-- Generator: Adobe Illustrator 22.1.0, SVG Export Plug-In . SVG Version: 6.00 Build 0)  -->
<svg version="1.1" id="scholarship" xmlns="http://www.w3.org/2000/svg" xmlns:xlink="http://www.w3.org/1999/xlink" x="0px" y="0px"
	 viewBox="0 0 512 512" style="enable-background:new 0 0 512 512;" xml:space="preserve">
<style type="text/css">
	.st0{fill:#FFFFFF;}
</style>
<g>
	<g>
		<path class="st0" d="M136.7,246.2v82.1c0,16.5,53.3,41.7,119.1,41.7c65.7,0,119.1-25.2,119.1-41.7v-82.1l-119.1,42.5L136.7,246.2z
			"/>
		<path class="st0" d="M127.2,352.6v-127h-13.9v127c-4.1,2.4-6.9,6.7-6.9,11.8c0,7.7,6.2,13.9,13.9,13.9c7.7,0,13.9-6.2,13.9-13.9
			C134.1,359.3,131.3,355,127.2,352.6z"/>
		<path class="st0" d="M242.2,199.8c2-5.6,7.2-9.7,13.5-9.7c8,0,14.5,6.5,14.5,14.5c0,8-6.5,14.5-14.5,14.5c-4.6,0-8.5-2.3-11.1-5.6
			l-110.6,17l121.7,43.4L450,204.6l-194.3-69.4L61.4,204.6l45.1,16.1L242.2,199.8z"/>
	</g>
</g>
</svg>
